<mxfile host="app.diagrams.net" agent="Mozilla/5.0 (Windows NT 10.0; Win64; x64; rv:132.0) Gecko/20100101 Firefox/132.0" version="24.8.6">
  <diagram id="C5RBs43oDa-KdzZeNtuy" name="Page-1">
    <mxGraphModel dx="1687" dy="2188" grid="1" gridSize="10" guides="1" tooltips="1" connect="1" arrows="1" fold="1" page="1" pageScale="1" pageWidth="827" pageHeight="1169" math="0" shadow="0">
      <root>
        <mxCell id="WIyWlLk6GJQsqaUBKTNV-0" />
        <mxCell id="WIyWlLk6GJQsqaUBKTNV-1" parent="WIyWlLk6GJQsqaUBKTNV-0" />
        <mxCell id="1D_bEhsj5OnLIeOwqoj_-2" style="edgeStyle=orthogonalEdgeStyle;rounded=0;orthogonalLoop=1;jettySize=auto;html=1;exitX=1;exitY=0.5;exitDx=0;exitDy=0;entryX=0.5;entryY=0;entryDx=0;entryDy=0;" parent="WIyWlLk6GJQsqaUBKTNV-1" source="WIyWlLk6GJQsqaUBKTNV-6" edge="1" target="WIyWlLk6GJQsqaUBKTNV-6">
          <mxGeometry relative="1" as="geometry">
            <mxPoint x="499.94" y="-960" as="targetPoint" />
            <mxPoint x="474.94" y="-950" as="sourcePoint" />
            <Array as="points">
              <mxPoint x="469.94" y="-964" />
              <mxPoint x="469.94" y="-1030" />
              <mxPoint x="399.94" y="-1030" />
            </Array>
          </mxGeometry>
        </mxCell>
        <mxCell id="1D_bEhsj5OnLIeOwqoj_-10" value="&lt;div&gt;Nein&lt;/div&gt;&lt;div&gt;(HIGH)&lt;br&gt;&lt;/div&gt;" style="edgeLabel;html=1;align=center;verticalAlign=middle;resizable=0;points=[];" parent="1D_bEhsj5OnLIeOwqoj_-2" vertex="1" connectable="0">
          <mxGeometry x="-0.8209" y="-8" relative="1" as="geometry">
            <mxPoint x="27" y="-48" as="offset" />
          </mxGeometry>
        </mxCell>
        <mxCell id="JPkqglJ5JUpGUk-TDDTW-1" style="edgeStyle=orthogonalEdgeStyle;rounded=0;orthogonalLoop=1;jettySize=auto;html=1;exitX=0.5;exitY=1;exitDx=0;exitDy=0;entryX=0.5;entryY=0;entryDx=0;entryDy=0;" edge="1" parent="WIyWlLk6GJQsqaUBKTNV-1" source="WIyWlLk6GJQsqaUBKTNV-6" target="WIyWlLk6GJQsqaUBKTNV-12">
          <mxGeometry relative="1" as="geometry" />
        </mxCell>
        <mxCell id="JPkqglJ5JUpGUk-TDDTW-2" value="&lt;div&gt;JA&lt;/div&gt;&lt;div&gt;(LOW)&lt;/div&gt;" style="edgeLabel;html=1;align=center;verticalAlign=middle;resizable=0;points=[];" vertex="1" connectable="0" parent="JPkqglJ5JUpGUk-TDDTW-1">
          <mxGeometry x="-0.592" relative="1" as="geometry">
            <mxPoint x="-20" y="4" as="offset" />
          </mxGeometry>
        </mxCell>
        <mxCell id="WIyWlLk6GJQsqaUBKTNV-6" value="Taster gedrÃ¼ckt?" style="rhombus;whiteSpace=wrap;html=1;shadow=0;fontFamily=Helvetica;fontSize=12;align=center;strokeWidth=1;spacing=6;spacingTop=-4;" parent="WIyWlLk6GJQsqaUBKTNV-1" vertex="1">
          <mxGeometry x="349.94" y="-1004" width="100" height="80" as="geometry" />
        </mxCell>
        <mxCell id="1D_bEhsj5OnLIeOwqoj_-5" style="edgeStyle=orthogonalEdgeStyle;rounded=0;orthogonalLoop=1;jettySize=auto;html=1;exitX=0.5;exitY=1;exitDx=0;exitDy=0;entryX=0.5;entryY=0;entryDx=0;entryDy=0;" parent="WIyWlLk6GJQsqaUBKTNV-1" source="WIyWlLk6GJQsqaUBKTNV-12" target="JPkqglJ5JUpGUk-TDDTW-3" edge="1">
          <mxGeometry relative="1" as="geometry">
            <mxPoint x="399.94" y="-784" as="targetPoint" />
          </mxGeometry>
        </mxCell>
        <mxCell id="WIyWlLk6GJQsqaUBKTNV-12" value="LED toggeln" style="rounded=1;whiteSpace=wrap;html=1;fontSize=12;glass=0;strokeWidth=1;shadow=0;" parent="WIyWlLk6GJQsqaUBKTNV-1" vertex="1">
          <mxGeometry x="339.94" y="-874" width="120" height="40" as="geometry" />
        </mxCell>
        <mxCell id="1D_bEhsj5OnLIeOwqoj_-1" style="edgeStyle=orthogonalEdgeStyle;rounded=0;orthogonalLoop=1;jettySize=auto;html=1;exitX=0.5;exitY=1;exitDx=0;exitDy=0;entryX=0.5;entryY=0;entryDx=0;entryDy=0;" parent="WIyWlLk6GJQsqaUBKTNV-1" source="1D_bEhsj5OnLIeOwqoj_-0" target="WIyWlLk6GJQsqaUBKTNV-6" edge="1">
          <mxGeometry relative="1" as="geometry">
            <mxPoint x="399.94" y="-1094" as="targetPoint" />
          </mxGeometry>
        </mxCell>
        <mxCell id="1D_bEhsj5OnLIeOwqoj_-0" value="&lt;div&gt;Start&lt;/div&gt;" style="ellipse;whiteSpace=wrap;html=1;" parent="WIyWlLk6GJQsqaUBKTNV-1" vertex="1">
          <mxGeometry x="374.94" y="-1100" width="50" height="50" as="geometry" />
        </mxCell>
        <mxCell id="JPkqglJ5JUpGUk-TDDTW-5" style="edgeStyle=orthogonalEdgeStyle;rounded=0;orthogonalLoop=1;jettySize=auto;html=1;exitX=0.5;exitY=1;exitDx=0;exitDy=0;entryX=0;entryY=0.5;entryDx=0;entryDy=0;" edge="1" parent="WIyWlLk6GJQsqaUBKTNV-1" source="JPkqglJ5JUpGUk-TDDTW-3" target="WIyWlLk6GJQsqaUBKTNV-6">
          <mxGeometry relative="1" as="geometry">
            <Array as="points">
              <mxPoint x="399.94" y="-730" />
              <mxPoint x="299.94" y="-730" />
              <mxPoint x="299.94" y="-964" />
            </Array>
          </mxGeometry>
        </mxCell>
        <mxCell id="JPkqglJ5JUpGUk-TDDTW-3" value="1 Sekunde warten" style="rounded=1;whiteSpace=wrap;html=1;fontSize=12;glass=0;strokeWidth=1;shadow=0;" vertex="1" parent="WIyWlLk6GJQsqaUBKTNV-1">
          <mxGeometry x="339.94" y="-790" width="120" height="40" as="geometry" />
        </mxCell>
      </root>
    </mxGraphModel>
  </diagram>
</mxfile>
